<svg width="25" height="24" viewBox="0 0 25 24" fill="none" xmlns="http://www.w3.org/2000/svg">
<path d="M3.34961 3.25L5.42961 3.61L6.39261 15.083C6.46961 16.02 7.25261 16.739 8.19261 16.736H19.1016C19.9986 16.738 20.7596 16.078 20.8866 15.19L21.8356 8.632C21.9416 7.899 21.4326 7.219 20.7006 7.113C20.6366 7.104 5.76361 7.099 5.76361 7.099" stroke="#9E9E9E" stroke-width="1.5" stroke-linecap="round" stroke-linejoin="round"/>
<path d="M14.7246 10.7949H17.4976" stroke="#9E9E9E" stroke-width="1.5" stroke-linecap="round" stroke-linejoin="round"/>
<path fill-rule="evenodd" clip-rule="evenodd" d="M7.75396 20.2026C8.05496 20.2026 8.29796 20.4466 8.29796 20.7466C8.29796 21.0476 8.05496 21.2916 7.75396 21.2916C7.45296 21.2916 7.20996 21.0476 7.20996 20.7466C7.20996 20.4466 7.45296 20.2026 7.75396 20.2026Z" fill="#9E9E9E" stroke="#9E9E9E" stroke-width="1.5" stroke-linecap="round" stroke-linejoin="round"/>
<path fill-rule="evenodd" clip-rule="evenodd" d="M19.0342 20.2026C19.3352 20.2026 19.5792 20.4466 19.5792 20.7466C19.5792 21.0476 19.3352 21.2916 19.0342 21.2916C18.7332 21.2916 18.4902 21.0476 18.4902 20.7466C18.4902 20.4466 18.7332 20.2026 19.0342 20.2026Z" fill="#9E9E9E" stroke="#9E9E9E" stroke-width="1.5" stroke-linecap="round" stroke-linejoin="round"/>
</svg>
