<svg width="20" height="21" viewBox="0 0 20 21" fill="none" xmlns="http://www.w3.org/2000/svg">
<path fill-rule="evenodd" clip-rule="evenodd" d="M14.6026 6.6633V7.94108C16.0379 8.38909 17.0837 9.68841 17.0837 11.2403V15.3544C17.0837 17.2756 15.4909 18.8333 13.5272 18.8333H6.47432C4.50979 18.8333 2.91699 17.2756 2.91699 15.3544V11.2403C2.91699 9.68841 3.96362 8.38909 5.39806 7.94108V6.6633C5.40653 4.17895 7.46421 2.16663 9.98763 2.16663C12.5449 2.16663 14.6026 4.17895 14.6026 6.6633ZM10.0046 3.61583C11.7235 3.61583 13.1207 4.98222 13.1207 6.6633V7.76138H6.87993V6.64673C6.8884 4.97394 8.28559 3.61583 10.0046 3.61583ZM10.7413 14.2124C10.7413 14.6182 10.411 14.9411 9.99609 14.9411C9.58964 14.9411 9.25939 14.6182 9.25939 14.2124V12.374C9.25939 11.9765 9.58964 11.6535 9.99609 11.6535C10.411 11.6535 10.7413 11.9765 10.7413 12.374V14.2124Z" fill="#9E9E9E"/>
</svg>
