<svg width="140" height="140" viewBox="0 0 140 140" fill="none" xmlns="http://www.w3.org/2000/svg"><path d="M17.956 24.84C30.618 11.248 48.606 2.672 67.276.573c4.249-.199 8.516-.975 12.765-.304 12.534.584 25.055 4.049 35.682 10.638 11.329 6.837 20.208 17.841 23.257 30.578 2.195 8.843.747 18.363-3.38 26.467-4.427 8.626-12.554 15.047-21.656 18.58-8.873 3.54-18.575 4.608-28.105 4.173-7-.434-14.144-1.714-20.59-4.504-2.817-1.22-2.168-5.113.698-6.216 8.222-3.163 15.565-8.508 20.772-15.492 5.799-7.763 6.493-16.97 6.554-18.836.06-1.866.76-8.526-3.456-13.692s-14.632-7.31-20.776-4.156c-3.008 1.544-4.6 2.119-8.117 5.702l-.023.024c-.302.306-8.043 8.295-11.09 25.611-1.41 11.936.096 24.586 6.322 35.13 5.76 9.98 15.424 17.469 26.236 21.735 12.81 5.021 27.218 6.206 40.706 3.338 3.634-.773 6.334 3.369 3.314 5.533-6.922 4.959-14.902 8.585-23.047 11.113-17.146 5.192-35.957 5.459-53.09.087-17.714-5.458-33.266-17.618-42.087-33.59-13.893-24.449-9.683-57.157 9.791-77.65Z" fill="url(#a)"/><defs><linearGradient id="a" x1="140" y1="140" x2="-26.587" y2="91.7" gradientUnits="userSpaceOnUse"><stop stop-color="#335EF7"/><stop offset="1" stop-color="#5F82FF"/></linearGradient></defs></svg>