<svg width="16" height="16" viewBox="0 0 16 16" fill="none" xmlns="http://www.w3.org/2000/svg">
<path opacity="0.4" d="M8.65054 2.07558L10.1349 5.05843C10.2442 5.27454 10.4529 5.42462 10.6936 5.45797L14.0277 5.94355C14.2224 5.97089 14.3991 6.07361 14.5185 6.23036C14.6365 6.3851 14.6872 6.5812 14.6585 6.77397C14.6352 6.93405 14.5598 7.08213 14.4445 7.19552L12.0286 9.53737C11.8519 9.70079 11.7719 9.94291 11.8146 10.1797L12.4093 13.472C12.4727 13.8696 12.2093 14.2444 11.8146 14.3198C11.6519 14.3458 11.4852 14.3185 11.3385 14.2438L8.36448 12.6943C8.14377 12.5829 7.88304 12.5829 7.66233 12.6943L4.68836 14.2438C4.32295 14.4379 3.87018 14.3058 3.66681 13.9456C3.59146 13.8022 3.56478 13.6388 3.58946 13.4794L4.18425 10.1864C4.22693 9.95025 4.14624 9.70679 3.9702 9.54338L1.55435 7.20285C1.26696 6.92538 1.25829 6.46848 1.53501 6.181C1.54102 6.175 1.54768 6.16833 1.55435 6.16166C1.66904 6.04493 1.81974 5.97089 1.98244 5.95155L5.31649 5.4653C5.55654 5.43129 5.76526 5.28254 5.87528 5.0651L7.30625 2.07558C7.43361 1.81945 7.69767 1.66004 7.9844 1.66671H8.07375C8.32247 1.69672 8.53919 1.8508 8.65054 2.07558Z" fill="url(#paint0_linear_1150_4564)"/>
<path d="M7.99435 12.6112C7.86521 12.6153 7.73941 12.6499 7.62625 12.712L4.66682 14.2579C4.30471 14.4307 3.87138 14.2966 3.66836 13.9503C3.59315 13.8089 3.56586 13.6468 3.59115 13.488L4.18224 10.2019C4.22217 9.96308 4.1423 9.72021 3.96857 9.55207L1.55163 7.21215C1.26474 6.93126 1.25942 6.47021 1.54032 6.18264C1.54431 6.17864 1.54764 6.1753 1.55163 6.17197C1.66612 6.05854 1.81389 5.98381 1.97298 5.96046L5.30983 5.46939C5.55146 5.4387 5.76113 5.28791 5.86763 5.06906L7.31806 2.04192C7.45585 1.79772 7.72011 1.65226 7.99967 1.66761C7.99435 1.86577 7.99435 12.4765 7.99435 12.6112Z" fill="url(#paint1_linear_1150_4564)"/>
<defs>
<linearGradient id="paint0_linear_1150_4564" x1="14.6663" y1="14.3332" x2="-1.06732" y2="9.53124" gradientUnits="userSpaceOnUse">
<stop stop-color="#FB9400"/>
<stop offset="1" stop-color="#FFAB38"/>
</linearGradient>
<linearGradient id="paint1_linear_1150_4564" x1="7.99967" y1="14.3332" x2="-0.40423" y2="13.0507" gradientUnits="userSpaceOnUse">
<stop stop-color="#FB9400"/>
<stop offset="1" stop-color="#FFAB38"/>
</linearGradient>
</defs>
</svg>
