<svg width="140" height="140" viewBox="0 0 140 140" fill="none" xmlns="http://www.w3.org/2000/svg">
<path d="M17.956 24.8409C30.6179 11.2471 48.606 2.67109 67.2767 0.572104C71.525 0.373383 75.7924 -0.402874 80.0406 0.267809C92.5749 0.851551 105.096 4.31675 115.723 10.9056C127.052 17.7428 135.931 28.747 138.98 41.4838C141.175 50.3268 139.727 59.8468 135.6 67.9509C131.173 76.5766 123.046 82.9978 113.944 86.5313C105.071 90.071 95.3688 91.1392 85.8389 90.7045C78.8398 90.2696 71.6945 88.9902 65.2499 86.2004C62.4322 84.9806 63.081 81.0867 65.9467 79.9843C74.1687 76.8212 81.5118 71.4763 86.7192 64.4919C92.5175 56.7294 93.2122 47.5219 93.2728 45.6559C93.3333 43.79 94.033 37.1295 89.8172 31.9635C85.6014 26.7975 75.1848 24.6545 69.041 27.8083C66.0327 29.3525 64.4418 29.9267 60.9243 33.5102C60.9147 33.52 60.9102 33.5246 60.9006 33.5343C60.599 33.8402 52.858 41.8292 49.8116 59.1451C48.4019 71.0808 49.9073 83.7306 56.133 94.2752C61.893 104.255 71.5569 111.744 82.3689 116.01C95.1787 121.031 109.587 122.216 123.075 119.348C126.709 118.575 129.409 122.717 126.389 124.881C119.467 129.84 111.487 133.466 103.342 135.994C86.1962 141.186 67.3851 141.453 50.2518 136.081C32.5379 130.623 16.9865 118.463 8.16462 102.491C-5.72835 78.0422 -1.51836 45.334 17.956 24.8409Z" fill="url(#paint0_linear_1027_16641)"/>
<defs>
<linearGradient id="paint0_linear_1027_16641" x1="140" y1="140" x2="-26.5874" y2="91.6995" gradientUnits="userSpaceOnUse">
<stop stop-color="#335EF7"/>
<stop offset="1" stop-color="#5F82FF"/>
</linearGradient>
</defs>
</svg>
